HIERARCHY
ROOT Hips
{
  OFFSET 5.72205e-005 65.662 3.42586
  CHANNELS 6 Xposition Yposition Zposition Zrotation Xrotation Yrotation
  JOINT Chest
  {
    OFFSET 0 8.7983 -4.7612
    CHANNELS 3 Zrotation Xrotation Yrotation
    JOINT Chest2
    {
      OFFSET 0 8.0291 0.4195
      CHANNELS 3 Zrotation Xrotation Yrotation
      JOINT Chest3
      {
        OFFSET 0 9.9351 -2.2114
        CHANNELS 3 Zrotation Xrotation Yrotation
        JOINT Neck
        {
          OFFSET 0 22.3885 -0.4656
          CHANNELS 3 Zrotation Xrotation Yrotation
          JOINT Head
          {
            OFFSET -0.0001 12.643 3.4389
            CHANNELS 3 Zrotation Xrotation Yrotation
            End Site
            {
              OFFSET 0.0001 17.6655 0.5274
            }
          }
        }
        JOINT LeftCollar
        {
          OFFSET 2.2603 21.606 7.4023
          CHANNELS 3 Zrotation Xrotation Yrotation
          JOINT LeftShoulder
          {
            OFFSET 13.5163 -1.1332 -5.0146
            CHANNELS 3 Zrotation Xrotation Yrotation
            JOINT LeftElbow
            {
              OFFSET -0.0995 -28.05 -0.2431
              CHANNELS 3 Zrotation Xrotation Yrotation
              JOINT LeftWrist
              {
                OFFSET 0.0679 -23.3996 -0.1402
                CHANNELS 3 Zrotation Xrotation Yrotation
                JOINT LeftFinger1
                {
                  OFFSET 0.7932 -9.069 2.5189
                  CHANNELS 3 Zrotation Xrotation Yrotation
                  JOINT LeftFinger11
                  {
                    OFFSET -0.8272 -3.3923 0.5977
                    CHANNELS 3 Zrotation Xrotation Yrotation
                    JOINT LeftFinger12
                    {
                      OFFSET -0.5649 -2.3158 0.4082
                      CHANNELS 3 Zrotation Xrotation Yrotation
                      End Site
                      {
                        OFFSET -0.4919 -1.6479 0.2673
                      }
                    }
                  }
                }
                JOINT LeftFinger2
                {
                  OFFSET 0.9159 -9.2044 0.2193
                  CHANNELS 3 Zrotation Xrotation Yrotation
                  JOINT LeftFinger21
                  {
                    OFFSET 0.0117 -4.1944 -0.0248
                    CHANNELS 3 Zrotation Xrotation Yrotation
                    JOINT LeftFinger22
                    {
                      OFFSET 0.0071 -2.3249 -0.0142
                      CHANNELS 3 Zrotation Xrotation Yrotation
                      End Site
                      {
                        OFFSET -0.1475 -2.0882 0.0028
                      }
                    }
                  }
                }
                JOINT LeftFinger3
                {
                  OFFSET 0.6113 -8.7231 -2.0637
                  CHANNELS 3 Zrotation Xrotation Yrotation
                  JOINT LeftFinger31
                  {
                    OFFSET -0.1927 -3.8059 -0.2383
                    CHANNELS 3 Zrotation Xrotation Yrotation
                    JOINT LeftFinger32
                    {
                      OFFSET -0.1091 -2.1688 -0.1362
                      CHANNELS 3 Zrotation Xrotation Yrotation
                      End Site
                      {
                        OFFSET -0.2358 -1.9176 -0.0906
                      }
                    }
                  }
                }
                JOINT LeftFinger4
                {
                  OFFSET -0.6151 -8.0947 -3.5641
                  CHANNELS 3 Zrotation Xrotation Yrotation
                  JOINT LeftFinger41
                  {
                    OFFSET -0.4882 -2.341 -0.6462
                    CHANNELS 3 Zrotation Xrotation Yrotation
                    JOINT LeftFinger42
                    {
                      OFFSET -0.3575 -1.7167 -0.4742
                      CHANNELS 3 Zrotation Xrotation Yrotation
                      End Site
                      {
                        OFFSET -0.4187 -1.5237 -0.3496
                      }
                    }
                  }
                }
                JOINT LeftFinger0
                {
                  OFFSET -1.42 -1.8761 1.4223
                  CHANNELS 3 Zrotation Xrotation Yrotation
                  JOINT LeftFinger01
                  {
                    OFFSET -1.1471 -3.4929 2.6334
                    CHANNELS 3 Zrotation Xrotation Yrotation
                    JOINT LeftFinger02
                    {
                      OFFSET -0.823 -2.3 1.6571
                      CHANNELS 3 Zrotation Xrotation Yrotation
                      End Site
                      {
                        OFFSET -0.5822 -1.6914 1.1582
                      }
                    }
                  }
                }
              }
            }
          }
        }
        JOINT RightCollar
        {
          OFFSET -2.2603 21.606 7.4023
          CHANNELS 3 Zrotation Xrotation Yrotation
          JOINT RightShoulder
          {
            OFFSET -13.5187 -1.1334 -5.0155
            CHANNELS 3 Zrotation Xrotation Yrotation
            JOINT RightElbow
            {
              OFFSET 0.0994 -28.0499 -0.2431
              CHANNELS 3 Zrotation Xrotation Yrotation
              JOINT RightWrist
              {
                OFFSET -0.0679 -23.3996 -0.1402
                CHANNELS 3 Zrotation Xrotation Yrotation
                JOINT RightFinger1
                {
                  OFFSET -0.7932 -9.0691 2.5189
                  CHANNELS 3 Zrotation Xrotation Yrotation
                  JOINT RightFinger11
                  {
                    OFFSET 0.8272 -3.3923 0.5977
                    CHANNELS 3 Zrotation Xrotation Yrotation
                    JOINT RightFinger12
                    {
                      OFFSET 0.565 -2.3158 0.4082
                      CHANNELS 3 Zrotation Xrotation Yrotation
                      End Site
                      {
                        OFFSET 0.4919 -1.6479 0.2673
                      }
                    }
                  }
                }
                JOINT RightFinger2
                {
                  OFFSET -0.916 -9.2044 0.2193
                  CHANNELS 3 Zrotation Xrotation Yrotation
                  JOINT RightFinger21
                  {
                    OFFSET -0.0117 -4.1944 -0.0248
                    CHANNELS 3 Zrotation Xrotation Yrotation
                    JOINT RightFinger22
                    {
                      OFFSET -0.0071 -2.3249 -0.0142
                      CHANNELS 3 Zrotation Xrotation Yrotation
                      End Site
                      {
                        OFFSET 0.1475 -2.0882 0.0028
                      }
                    }
                  }
                }
                JOINT RightFinger3
                {
                  OFFSET -0.6113 -8.7231 -2.0637
                  CHANNELS 3 Zrotation Xrotation Yrotation
                  JOINT RightFinger31
                  {
                    OFFSET 0.1927 -3.8059 -0.2383
                    CHANNELS 3 Zrotation Xrotation Yrotation
                    JOINT RightFinger32
                    {
                      OFFSET 0.1091 -2.1688 -0.1362
                      CHANNELS 3 Zrotation Xrotation Yrotation
                      End Site
                      {
                        OFFSET 0.2358 -1.9176 -0.0906
                      }
                    }
                  }
                }
                JOINT RightFinger4
                {
                  OFFSET 0.6151 -8.0947 -3.564
                  CHANNELS 3 Zrotation Xrotation Yrotation
                  JOINT RightFinger41
                  {
                    OFFSET 0.4882 -2.341 -0.6462
                    CHANNELS 3 Zrotation Xrotation Yrotation
                    JOINT RightFinger42
                    {
                      OFFSET 0.3574 -1.7166 -0.4742
                      CHANNELS 3 Zrotation Xrotation Yrotation
                      End Site
                      {
                        OFFSET 0.4187 -1.5237 -0.3496
                      }
                    }
                  }
                }
                JOINT RightFinger0
                {
                  OFFSET 1.4199 -1.8761 1.4221
                  CHANNELS 3 Zrotation Xrotation Yrotation
                  JOINT RightFinger01
                  {
                    OFFSET 1.1472 -3.4929 2.6336
                    CHANNELS 3 Zrotation Xrotation Yrotation
                    JOINT RightFinger02
                    {
                      OFFSET 0.8229 -2.3 1.6571
                      CHANNELS 3 Zrotation Xrotation Yrotation
                      End Site
                      {
                        OFFSET 0.5822 -1.6914 1.1582
                      }
                    }
                  }
                }
              }
            }
          }
        }
      }
    }
  }
  JOINT RightHip
  {
    OFFSET -9.412 3.9771 -0.7758
    CHANNELS 3 Zrotation Xrotation Yrotation
    JOINT RightKnee
    {
      OFFSET -0.7531 -40.938 0
      CHANNELS 3 Zrotation Xrotation Yrotation
      JOINT RightAnkle
      {
        OFFSET 0 -40.1986 0
        CHANNELS 3 Zrotation Xrotation Yrotation
        JOINT RightToe
        {
          OFFSET 0 -4.4182 9.239
          CHANNELS 3 Zrotation Xrotation Yrotation
          End Site
          {
            OFFSET 0 0 6.1981
          }
        }
      }
    }
  }
  JOINT LeftHip
  {
    OFFSET 9.4119 3.9773 -0.7758
    CHANNELS 3 Zrotation Xrotation Yrotation
    JOINT LeftKnee
    {
      OFFSET 0.7532 -40.9383 0
      CHANNELS 3 Zrotation Xrotation Yrotation
      JOINT LeftAnkle
      {
        OFFSET 0 -40.1986 0
        CHANNELS 3 Zrotation Xrotation Yrotation
        JOINT LeftToe
        {
          OFFSET 0 -4.4182 9.239
          CHANNELS 3 Zrotation Xrotation Yrotation
          End Site
          {
            OFFSET 0 0 6.1981
          }
        }
      }
    }
  }
}
MOTION
Frames:	4
Frame Time:	0.0333333
5.72205e-005 65.662 3.42586 0 0 -0 0 0 -0 0 0 -0 0 0 -0 0 0 -0 0 0 -0 0 0 -12.5014 88.1196 14.2451 10.6914 -0.00160068 -0.00239207 0.000740045 -8.4365e-005 7.00714e-005 -9.52055e-007 9.93923e-017 -1.98785e-016 -1.59028e-015 9.93923e-017 -5.96354e-016 -1.59028e-015 -9.93923e-017 -5.96354e-016 -1.59028e-015 9.93923e-017 -1.98785e-016 -1.59028e-015 -0.0128176 0.00232552 8.52707e-005 9.93923e-017 5.96354e-016 -0 9.93923e-017 -1.98785e-016 -1.59028e-015 -0.0160551 0.00299681 0.000857156 -2.48481e-016 0 3.18055e-015 9.93923e-017 -1.98785e-016 -1.59028e-015 -0.0125865 0.0031206 0.00282719 0 1.98785e-016 -0 9.93923e-017 -1.98785e-016 -1.59028e-015 9.93923e-017 -5.96354e-016 -1.59028e-015 -9.93923e-017 -5.96354e-016 -1.59028e-015 -0.865644 0.16582 7.03859 -88.0329 10.2057 -10.5567 0.0015593 -0.00248883 -0.000788628 7.87605e-005 4.10553e-005 1.24965e-005 -3.97569e-016 -7.95139e-016 3.18055e-015 -1.98785e-016 -3.97569e-016 3.18055e-015 -1.98785e-016 0 3.18055e-015 -3.97569e-016 -7.95139e-016 3.18055e-015 0.0129473 0.00231697 -8.70038e-005 9.93923e-017 -7.95139e-016 1.59028e-015 -3.97569e-016 -7.95139e-016 3.18055e-015 0.0163314 0.00303369 -0.000872333 3.97569e-016 7.95139e-016 -3.18055e-015 -3.97569e-016 -7.95139e-016 3.18055e-015 0.0145763 0.00367772 -0.00326275 9.93923e-017 -3.97569e-016 -0 -3.97569e-016 -7.95139e-016 3.18055e-015 -1.98785e-016 -3.97569e-016 3.18055e-015 -1.98785e-016 0 3.18055e-015 3.42482 1.32465 -0.0626183 0.000117508 0.717283 0.000978199 -3.4257 -2.04197 -0.0604716 6.47761e-025 0 -0 -3.42483 1.34017 0.0627307 -0.000193936 0.682302 -0.0013703 3.42574 -2.02253 0.0595886 -8.45714e-024 0 -7.40531e-025 
4.43201e-005 3.06013 2.61281 0 0 -0 0 0.199556 -0 0 0.399113 -0 0 0.399112 -0 0 4.87644e-005 -0 0 0 -0 -1.85387e-008 4.8762e-005 -12.5014 14.085 2.50328 -7.64533 -6.64204 -31.3608 -2.9124 4.91621 -0.883757 0.190433 -9.86088e-008 -8.79299e-009 -1.74906e-006 9.86088e-008 8.793e-009 1.74906e-006 -9.86088e-008 -8.79299e-009 -1.74906e-006 -9.86088e-008 -8.79299e-009 -1.74906e-006 -0.0128109 0.00232333 8.79182e-005 -5.67817e-006 1.63821e-006 5.17514e-006 -9.86088e-008 -8.79299e-009 -1.74906e-006 -0.0160345 0.00299491 0.000858494 -8.4112e-007 -3.07491e-007 -1.36919e-006 -9.86088e-008 -8.79299e-009 -1.74906e-006 -0.0126232 0.00312197 0.00282624 3.18055e-015 1.50972e-006 -6.36111e-015 -9.86088e-008 -8.79299e-009 -1.74906e-006 9.86088e-008 8.793e-009 1.74906e-006 -9.86088e-008 -8.79299e-009 -1.74906e-006 -0.865644 0.165869 7.03859 -14.6789 1.9169 13.012 6.42791 -31.4084 2.41898 -9.84182 -1.70346 -0.701861 -8.87059e-007 -2.90311e-006 -1.37603e-006 -8.87059e-007 3.3119e-007 -1.37603e-006 3.61975e-006 -4.55762e-006 6.46881e-007 -8.87059e-007 -2.90311e-006 -1.37603e-006 0.0129606 0.0023095 -8.09779e-005 8.86894e-007 9.85235e-007 1.37607e-006 -8.87059e-007 -2.90311e-006 -1.37603e-006 0.0163518 0.00303927 -0.000871502 3.21914e-006 -5.94526e-007 2.00147e-006 -8.87059e-007 -2.90311e-006 -1.37603e-006 0.0145761 0.00367705 -0.0032609 2.17336e-006 -6.05848e-006 1.39802e-006 -8.87059e-007 -2.90311e-006 -1.37603e-006 -8.87059e-007 3.3119e-007 -1.37603e-006 3.61975e-006 -4.55762e-006 6.46881e-007 -15.4519 -38.913 -19.722 179.815 36.2154 173.536 1.40858 48.6738 -5.01988 7.36896e-007 -1.56715e-007 -3.9412e-007 15.4456 -38.9132 19.716 -179.815 36.2154 -173.536 -1.40866 48.6733 5.01997 2.94763e-006 1.55811e-006 -1.57644e-006 
4.43201e-005 3.06013 2.61281 0 0 -0 0 0.199556 -0 0 0.399113 -0 0 0.399112 -0 0 4.87644e-005 -0 0 0 -0 -1.85387e-008 4.8762e-005 -12.5014 14.085 2.50328 -7.64533 -6.64204 -31.3608 -2.9124 4.91621 -0.883757 0.190433 -9.86088e-008 -8.79299e-009 -1.74906e-006 9.86088e-008 8.793e-009 1.74906e-006 -9.86088e-008 -8.79299e-009 -1.74906e-006 -9.86088e-008 -8.79299e-009 -1.74906e-006 -0.0128109 0.00232333 8.79182e-005 -5.67817e-006 1.63821e-006 5.17514e-006 -9.86088e-008 -8.79299e-009 -1.74906e-006 -0.0160408 0.00299742 0.000854537 1.76556e-031 -3.18055e-015 3.18055e-015 -9.86088e-008 -8.79299e-009 -1.74906e-006 -0.0126232 0.00312197 0.00282624 3.18055e-015 1.50972e-006 -6.36111e-015 -9.86088e-008 -8.79299e-009 -1.74906e-006 9.86088e-008 8.793e-009 1.74906e-006 -9.86088e-008 -8.79299e-009 -1.74906e-006 -0.865644 0.165869 7.03859 -14.6789 1.9169 13.012 6.42791 -31.4084 2.41898 -9.84182 -1.70346 -0.701861 -8.87059e-007 -2.90311e-006 -1.37603e-006 -8.87059e-007 3.3119e-007 -1.37603e-006 3.61975e-006 -4.55762e-006 6.46881e-007 -8.87059e-007 -2.90311e-006 -1.37603e-006 0.0129606 0.0023095 -8.09779e-005 8.86894e-007 9.85235e-007 1.37607e-006 -8.87059e-007 -2.90311e-006 -1.37603e-006 0.0163518 0.00303927 -0.000871502 3.21914e-006 -5.94526e-007 2.00147e-006 -8.87059e-007 -2.90311e-006 -1.37603e-006 0.0145761 0.00367705 -0.0032609 2.17336e-006 -6.05848e-006 1.39802e-006 -8.87059e-007 -2.90311e-006 -1.37603e-006 -8.87059e-007 3.3119e-007 -1.37603e-006 3.61975e-006 -4.55762e-006 6.46881e-007 -15.4518 -38.913 -19.7219 179.815 36.2154 173.536 1.40858 48.6738 -5.01987 -3.97569e-015 -1.5848e-006 -0 15.4457 -38.9132 19.7161 -179.815 36.2155 -173.536 -1.40864 48.6733 5.01996 7.45152e-007 -2.97369e-006 -4.20202e-006 
4.43277e-005 3.06013 2.61281 0 0 -0 0 0.199556 -0 0 0.399113 -0 0 0.399112 -0 0 4.87644e-005 -0 0 0 -0 -1.85387e-008 4.8762e-005 -12.5014 14.085 2.50328 -7.64533 -6.64201 -31.3608 -2.91239 4.91619 -0.883731 0.190435 1.59028e-015 0 -0 1.59028e-015 3.18055e-015 -3.18055e-015 -1.59028e-015 0 -3.18055e-015 1.59028e-015 0 -0 -0.0128457 0.00233463 8.42075e-005 1.59028e-015 -3.18055e-015 -0 1.59028e-015 0 -0 -0.0160688 0.00298942 0.000852834 1.5166e-006 -1.79518e-006 2.35135e-006 1.59028e-015 0 -0 -0.0126149 0.00311756 0.00282693 -0 -3.18055e-015 -0 1.59028e-015 0 -0 1.59028e-015 3.18055e-015 -3.18055e-015 -1.59028e-015 0 -3.18055e-015 -0.865644 0.165869 7.03859 -14.6789 1.9169 13.012 6.42793 -31.4084 2.419 -9.84182 -1.70346 -0.701866 1.59028e-015 1.46359e-006 -0 9.88746e-006 1.294e-006 3.74251e-007 -1.57826e-007 -6.61504e-006 7.72386e-007 1.59028e-015 1.46359e-006 -0 0.0129656 0.00231076 -7.62233e-005 -1.04568e-006 -2.75189e-006 -6.0368e-007 1.59028e-015 1.46359e-006 -0 0.0163341 0.00303128 -0.000871232 3.28253e-007 1.13499e-006 3.50287e-006 1.59028e-015 1.46359e-006 -0 0.0145867 0.00367636 -0.00326342 7.27927e-007 -3.39131e-006 2.14872e-006 1.59028e-015 1.46359e-006 -0 9.88746e-006 1.294e-006 3.74251e-007 -1.57826e-007 -6.61504e-006 7.72386e-007 -15.4518 -38.913 -19.722 179.815 36.2154 173.536 1.40857 48.6738 -5.01987 -1.10328e-006 -9.99379e-007 -3.60793e-007 15.4456 -38.9132 19.716 -179.815 36.2154 -173.536 -1.40865 48.6733 5.01997 -7.36908e-007 -3.3142e-006 3.94111e-007 
